<mxfile host="app.diagrams.net" modified="2022-03-29T06:48:27.576Z" agent="5.0 (Windows NT 6.3; Win64; x64) AppleWebKit/537.36 (KHTML, like Gecko) Chrome/99.0.4844.84 Safari/537.36" etag="ZNDXsQBN48d630hfHnL4" version="17.2.4" type="github">
  <diagram name="Page-1" id="c7558073-3199-34d8-9f00-42111426c3f3">
    <mxGraphModel dx="769" dy="489" grid="1" gridSize="10" guides="1" tooltips="1" connect="1" arrows="1" fold="1" page="1" pageScale="1" pageWidth="826" pageHeight="1169" background="none" math="0" shadow="0">
      <root>
        <mxCell id="0" />
        <mxCell id="1" parent="0" />
        <mxCell id="Ya2ISrlnQAIy4A3owPbG-3" value="" style="rounded=0;whiteSpace=wrap;html=1;" vertex="1" parent="1">
          <mxGeometry x="120" width="560" height="370" as="geometry" />
        </mxCell>
        <mxCell id="Ya2ISrlnQAIy4A3owPbG-2" value="" style="group" vertex="1" connectable="0" parent="1">
          <mxGeometry x="160" y="30" width="450" height="200" as="geometry" />
        </mxCell>
        <mxCell id="_NhsMUah_G-XtV21Ln71-99" value="&lt;b&gt;Sonia&lt;br&gt;(Client)&lt;/b&gt;" style="text;html=1;strokeColor=#d6b656;fillColor=#fff2cc;align=center;verticalAlign=middle;whiteSpace=wrap;overflow=hidden;gradientColor=#ffd966;" parent="Ya2ISrlnQAIy4A3owPbG-2" vertex="1">
          <mxGeometry y="81" width="80" height="40" as="geometry" />
        </mxCell>
        <mxCell id="_NhsMUah_G-XtV21Ln71-106" style="edgeStyle=orthogonalEdgeStyle;rounded=1;orthogonalLoop=1;jettySize=auto;html=1;exitX=0;exitY=0.75;exitDx=0;exitDy=0;entryX=1;entryY=0.75;entryDx=0;entryDy=0;strokeColor=#00FFFF;strokeWidth=2;" parent="Ya2ISrlnQAIy4A3owPbG-2" source="_NhsMUah_G-XtV21Ln71-100" target="_NhsMUah_G-XtV21Ln71-99" edge="1">
          <mxGeometry relative="1" as="geometry" />
        </mxCell>
        <mxCell id="_NhsMUah_G-XtV21Ln71-100" value="Mon" style="text;html=1;strokeColor=#82b366;fillColor=#d5e8d4;align=center;verticalAlign=middle;whiteSpace=wrap;overflow=hidden;gradientColor=#97d077;" parent="Ya2ISrlnQAIy4A3owPbG-2" vertex="1">
          <mxGeometry x="170" y="81" width="80" height="40" as="geometry" />
        </mxCell>
        <mxCell id="_NhsMUah_G-XtV21Ln71-105" style="edgeStyle=orthogonalEdgeStyle;rounded=1;orthogonalLoop=1;jettySize=auto;html=1;exitX=1;exitY=0.25;exitDx=0;exitDy=0;entryX=0;entryY=0.25;entryDx=0;entryDy=0;strokeColor=#00FFFF;strokeWidth=2;" parent="Ya2ISrlnQAIy4A3owPbG-2" source="_NhsMUah_G-XtV21Ln71-99" target="_NhsMUah_G-XtV21Ln71-100" edge="1">
          <mxGeometry relative="1" as="geometry" />
        </mxCell>
        <mxCell id="_NhsMUah_G-XtV21Ln71-121" style="edgeStyle=orthogonalEdgeStyle;rounded=1;sketch=0;jumpStyle=none;orthogonalLoop=1;jettySize=auto;html=1;exitX=0;exitY=0.75;exitDx=0;exitDy=0;entryX=1;entryY=0.25;entryDx=0;entryDy=0;fontSize=11;strokeColor=#CC0066;strokeWidth=2;" parent="Ya2ISrlnQAIy4A3owPbG-2" source="_NhsMUah_G-XtV21Ln71-103" target="_NhsMUah_G-XtV21Ln71-100" edge="1">
          <mxGeometry relative="1" as="geometry" />
        </mxCell>
        <mxCell id="7Am8nNJaut23_0WVht7x-96" value="保活同步" style="edgeLabel;html=1;align=center;verticalAlign=middle;resizable=0;points=[];" parent="_NhsMUah_G-XtV21Ln71-121" vertex="1" connectable="0">
          <mxGeometry x="0.2786" y="-2" relative="1" as="geometry">
            <mxPoint as="offset" />
          </mxGeometry>
        </mxCell>
        <mxCell id="_NhsMUah_G-XtV21Ln71-103" value="OSD.0&lt;br&gt;(&lt;font style=&quot;font-size: 11px&quot;&gt;硬盘0&lt;/font&gt;)" style="text;html=1;strokeColor=#82b366;fillColor=#d5e8d4;align=center;verticalAlign=middle;whiteSpace=wrap;overflow=hidden;gradientColor=#97d077;" parent="Ya2ISrlnQAIy4A3owPbG-2" vertex="1">
          <mxGeometry x="329" width="80" height="40" as="geometry" />
        </mxCell>
        <mxCell id="_NhsMUah_G-XtV21Ln71-112" style="edgeStyle=orthogonalEdgeStyle;rounded=1;orthogonalLoop=1;jettySize=auto;html=1;exitX=0.5;exitY=0;exitDx=0;exitDy=0;entryX=0;entryY=0.25;entryDx=0;entryDy=0;strokeColor=#FF8000;sketch=0;strokeWidth=2;" parent="Ya2ISrlnQAIy4A3owPbG-2" source="_NhsMUah_G-XtV21Ln71-99" target="_NhsMUah_G-XtV21Ln71-103" edge="1">
          <mxGeometry relative="1" as="geometry" />
        </mxCell>
        <mxCell id="_NhsMUah_G-XtV21Ln71-120" value="IO读写" style="edgeLabel;html=1;align=center;verticalAlign=middle;resizable=0;points=[];fontSize=11;" parent="_NhsMUah_G-XtV21Ln71-112" vertex="1" connectable="0">
          <mxGeometry x="-0.0212" y="1" relative="1" as="geometry">
            <mxPoint as="offset" />
          </mxGeometry>
        </mxCell>
        <mxCell id="_NhsMUah_G-XtV21Ln71-123" style="edgeStyle=orthogonalEdgeStyle;rounded=1;sketch=0;jumpStyle=none;orthogonalLoop=1;jettySize=auto;html=1;exitX=0;exitY=0.25;exitDx=0;exitDy=0;entryX=1;entryY=0.75;entryDx=0;entryDy=0;fontSize=11;strokeColor=#CC0066;strokeWidth=2;" parent="Ya2ISrlnQAIy4A3owPbG-2" source="_NhsMUah_G-XtV21Ln71-104" target="_NhsMUah_G-XtV21Ln71-100" edge="1">
          <mxGeometry relative="1" as="geometry" />
        </mxCell>
        <mxCell id="_NhsMUah_G-XtV21Ln71-104" value="OSD.2&lt;br&gt;(&lt;font style=&quot;font-size: 11px&quot;&gt;硬盘2&lt;/font&gt;)" style="text;html=1;strokeColor=#82b366;fillColor=#d5e8d4;align=center;verticalAlign=middle;whiteSpace=wrap;overflow=hidden;gradientColor=#97d077;" parent="Ya2ISrlnQAIy4A3owPbG-2" vertex="1">
          <mxGeometry x="329" y="160" width="80" height="40" as="geometry" />
        </mxCell>
        <mxCell id="_NhsMUah_G-XtV21Ln71-118" style="edgeStyle=orthogonalEdgeStyle;rounded=1;sketch=0;orthogonalLoop=1;jettySize=auto;html=1;exitX=1;exitY=0.25;exitDx=0;exitDy=0;entryX=1;entryY=0.25;entryDx=0;entryDy=0;fontSize=11;strokeColor=#FF8000;strokeWidth=2;" parent="Ya2ISrlnQAIy4A3owPbG-2" source="_NhsMUah_G-XtV21Ln71-103" target="_NhsMUah_G-XtV21Ln71-104" edge="1">
          <mxGeometry relative="1" as="geometry">
            <Array as="points">
              <mxPoint x="450" y="10" />
              <mxPoint x="450" y="170" />
            </Array>
          </mxGeometry>
        </mxCell>
        <mxCell id="_NhsMUah_G-XtV21Ln71-124" value="IO分发" style="edgeLabel;html=1;align=center;verticalAlign=middle;resizable=0;points=[];fontSize=11;" parent="_NhsMUah_G-XtV21Ln71-118" vertex="1" connectable="0">
          <mxGeometry x="-0.2897" y="-4" relative="1" as="geometry">
            <mxPoint as="offset" />
          </mxGeometry>
        </mxCell>
        <mxCell id="_NhsMUah_G-XtV21Ln71-122" style="edgeStyle=orthogonalEdgeStyle;rounded=1;sketch=0;jumpStyle=none;orthogonalLoop=1;jettySize=auto;html=1;exitX=0;exitY=0.5;exitDx=0;exitDy=0;entryX=1;entryY=0.5;entryDx=0;entryDy=0;fontSize=11;strokeColor=#CC0066;strokeWidth=2;" parent="Ya2ISrlnQAIy4A3owPbG-2" source="_NhsMUah_G-XtV21Ln71-109" target="_NhsMUah_G-XtV21Ln71-100" edge="1">
          <mxGeometry relative="1" as="geometry" />
        </mxCell>
        <mxCell id="_NhsMUah_G-XtV21Ln71-109" value="OSD.1&lt;br&gt;(&lt;font style=&quot;font-size: 11px&quot;&gt;硬盘1&lt;/font&gt;)" style="text;html=1;strokeColor=#82b366;fillColor=#d5e8d4;align=center;verticalAlign=middle;whiteSpace=wrap;overflow=hidden;gradientColor=#97d077;" parent="Ya2ISrlnQAIy4A3owPbG-2" vertex="1">
          <mxGeometry x="329" y="81" width="80" height="40" as="geometry" />
        </mxCell>
        <mxCell id="_NhsMUah_G-XtV21Ln71-117" style="edgeStyle=orthogonalEdgeStyle;rounded=1;sketch=0;orthogonalLoop=1;jettySize=auto;html=1;exitX=1;exitY=0.75;exitDx=0;exitDy=0;entryX=1;entryY=0.25;entryDx=0;entryDy=0;fontSize=11;strokeColor=#FF8000;strokeWidth=2;" parent="Ya2ISrlnQAIy4A3owPbG-2" source="_NhsMUah_G-XtV21Ln71-103" target="_NhsMUah_G-XtV21Ln71-109" edge="1">
          <mxGeometry relative="1" as="geometry" />
        </mxCell>
        <mxCell id="_NhsMUah_G-XtV21Ln71-110" value="&lt;b&gt;建立集群链接&lt;/b&gt;" style="text;html=1;strokeColor=none;fillColor=none;align=center;verticalAlign=middle;whiteSpace=wrap;rounded=0;" parent="Ya2ISrlnQAIy4A3owPbG-2" vertex="1">
          <mxGeometry x="90" y="60" width="80" height="30" as="geometry" />
        </mxCell>
        <mxCell id="_NhsMUah_G-XtV21Ln71-111" value="&lt;b&gt;同步集群状态&lt;/b&gt;" style="text;html=1;strokeColor=none;fillColor=none;align=center;verticalAlign=middle;whiteSpace=wrap;rounded=0;" parent="Ya2ISrlnQAIy4A3owPbG-2" vertex="1">
          <mxGeometry x="90" y="112" width="80" height="30" as="geometry" />
        </mxCell>
      </root>
    </mxGraphModel>
  </diagram>
</mxfile>
